<?xml version="1.0" encoding="utf-8"?>
<!-- Generator: Adobe Illustrator 21.0.0, SVG Export Plug-In . SVG Version: 6.00 Build 0)  -->
<svg version="1.1" id="Ebene_1" xmlns="http://www.w3.org/2000/svg" xmlns:xlink="http://www.w3.org/1999/xlink" x="0px" y="0px"
	 viewBox="0 0 280 58" style="enable-background:new 0 0 280 58;" xml:space="preserve">
<style type="text/css">
	.st0{fill:url(#SVGID_1_);}
	.st1{fill:#3C4757;}
</style>
<title>spoone_logoai_quer</title>
<desc>Created with Sketch.</desc>
<g>
	
		<linearGradient id="SVGID_1_" gradientUnits="userSpaceOnUse" x1="1.2343" y1="52.3034" x2="35.6136" y2="17.9241" gradientTransform="matrix(1 0 0 -1 0 59.28)">
		<stop  offset="0" style="stop-color:#00CCC2"/>
		<stop  offset="0.25" style="stop-color:#06C4C6"/>
		<stop  offset="0.62" style="stop-color:#16B0D2"/>
		<stop  offset="1" style="stop-color:#2C94E2"/>
	</linearGradient>
	<path class="st0" d="M46.5,13.6c0,7.3-5.9,13.3-13.3,13.3h-3v-4.5h3c4.9,0,8.8-3.9,8.8-8.8s-3.9-8.8-8.8-8.8h-9.8
		c2.2,2.4,3.4,5.6,3.4,8.8v22c-0.1-0.5-1.6-2.8-4.5-5.4V13.6c0-2.7-1.2-5.2-3.3-6.9c-1.6-1.3-3.6-2-5.7-2h0.1c-1,0-2,0.2-3,0.5l0,0
		C10.2,5.3,10,5.4,9.8,5.5l-0.1,0C9.5,5.7,9.3,5.8,9.1,5.9L9,5.9C8.8,6.1,8.6,6.2,8.4,6.3L8.2,6.4C8.1,6.5,8,6.6,7.8,6.7
		C7.6,6.9,7.4,7.1,7.2,7.3L7,7.5c-1.5,1.6-2.4,3.8-2.4,6v0.9c0.2,1.9,1.1,3.7,2.5,5.1l15.3,15.2c0,0,4.5,3.9,4.5,9.9
		c0,7.3-6,13.3-13.3,13.3c-2,0-4-0.5-5.8-1.5c-1.3-0.6-2.5-1.4-3.5-2.4l-0.1,0l0,0L4,53.9l0,0c-2.4-2.5-3.8-5.8-3.8-9.2V23.5
		c0.6,0.8,1.2,1.5,2,2.2l2.5,2.5v16.5c0,3.3,1.9,6.4,4.9,7.9c3.1,1.4,6.7,1,9.4-1.2l0.1-0.1l0.2-0.2c1.9-1.7,2.9-4.1,2.9-6.6v-0.9
		c-0.2-1.9-1.1-3.7-2.5-5.1L4.4,23.3c-1-0.9-1.8-2-2.5-3.1c-1.2-2-1.9-4.3-1.9-6.6c0-3.3,1.2-6.5,3.5-8.9L4,4.2
		C6.2,2,9.1,0.6,12.2,0.4c0.4,0,0.9-0.1,1.4-0.1h19.7C40.6,0.3,46.5,6.2,46.5,13.6z"/>
	<path class="st1" d="M63.6,24.9h-2.9v-0.6c0-0.6-0.1-1.2-0.5-1.7c-0.4-0.5-0.9-0.8-1.6-0.7c-0.3,0-0.7,0.1-1,0.2
		c-0.2,0.1-0.4,0.3-0.6,0.6c-0.1,0.3-0.2,0.5-0.3,0.8c-0.1,0.3-0.1,0.6-0.1,1c0,0.4,0,0.7,0,1c0,0.2,0.1,0.5,0.2,0.7
		c0.1,0.2,0.3,0.4,0.5,0.5c0.3,0.2,0.6,0.3,0.9,0.5l2.2,0.9c0.6,0.2,1.1,0.5,1.5,0.9c0.4,0.3,0.7,0.7,0.9,1.2c0.2,0.5,0.4,1,0.4,1.5
		c0.1,0.6,0.1,1.3,0.1,2c0,0.8-0.1,1.6-0.3,2.3c-0.1,0.7-0.4,1.3-0.8,1.9c-0.4,0.5-0.9,0.9-1.5,1.2c-0.7,0.3-1.5,0.5-2.3,0.5
		c-0.7,0-1.3-0.1-1.9-0.4c-1.2-0.5-2.1-1.4-2.6-2.5c-0.3-0.6-0.4-1.2-0.4-1.9v-1h2.9v0.9c0,0.5,0.2,1,0.5,1.4c0.4,0.5,1,0.7,1.6,0.6
		c0.4,0,0.8-0.1,1.1-0.2c0.3-0.1,0.5-0.3,0.6-0.6c0.2-0.3,0.2-0.6,0.3-0.9c0-0.4,0.1-0.8,0.1-1.2c0-0.4,0-0.9-0.1-1.3
		c0-0.3-0.1-0.6-0.2-0.8c-0.1-0.2-0.3-0.4-0.5-0.5c-0.3-0.2-0.6-0.3-0.9-0.4L57,29.6c-1.2-0.5-2.1-1.2-2.5-2c-0.5-1-0.7-2.1-0.6-3.1
		c0-0.7,0.1-1.4,0.3-2.1c0.2-0.6,0.5-1.2,0.9-1.7c0.4-0.5,0.9-0.9,1.5-1.2c0.7-0.3,1.4-0.4,2.2-0.4c0.7,0,1.3,0.1,2,0.4
		c0.6,0.2,1.1,0.6,1.5,1c0.4,0.4,0.7,0.9,1,1.4c0.2,0.5,0.3,1.1,0.3,1.6L63.6,24.9z"/>
	<path class="st1" d="M66.5,19.1h8.5v2.7h-5.7v5.9h4.9v2.7h-4.9v5.9h5.7v2.9h-8.5V19.1z"/>
	<path class="st1" d="M77.8,19.1h4.6c3.4,0,5.1,2,5.1,5.9c0,1-0.2,2-0.5,3c-0.4,0.9-1.1,1.6-1.9,2l3.1,9.1h-3l-2.7-8.5h-1.7v8.6
		h-2.9V19.1z M80.6,28.1h1.6c0.4,0,0.8-0.1,1.2-0.2c0.3-0.1,0.5-0.3,0.7-0.6c0.2-0.3,0.3-0.6,0.3-1c0.1-0.9,0.1-1.8,0-2.7
		c0-0.3-0.2-0.7-0.4-1c-0.2-0.3-0.4-0.5-0.7-0.6c-0.4-0.1-0.8-0.2-1.3-0.2h-1.5L80.6,28.1z"/>
	<path class="st1" d="M96.2,39.2h-2.5l-4.1-20h3l2.3,14H95l2.3-14h3L96.2,39.2z"/>
	<path class="st1" d="M103,19.1h2.9v20H103V19.1z"/>
	<path class="st1" d="M118.6,34.7c0,0.6-0.1,1.2-0.4,1.8c-0.2,0.5-0.6,1-1,1.5c-0.4,0.4-0.9,0.8-1.4,1c-0.6,0.3-1.2,0.4-1.8,0.4
		c-0.6,0-1.1-0.1-1.7-0.2c-0.6-0.1-1.1-0.4-1.5-0.8c-0.5-0.4-0.9-0.9-1.1-1.4c-0.3-0.7-0.5-1.5-0.4-2.3v-11c0-0.6,0.1-1.2,0.3-1.8
		c0.2-0.5,0.5-1,1-1.5c0.4-0.4,0.9-0.7,1.5-1c0.6-0.2,1.2-0.4,1.9-0.3c0.6,0,1.2,0.1,1.8,0.3c0.6,0.2,1,0.6,1.5,1
		c0.4,0.4,0.8,1,1,1.5c0.2,0.6,0.4,1.3,0.4,1.9v1.1h-2.9v-1c0-0.5-0.2-1-0.5-1.5c-0.3-0.4-0.8-0.6-1.3-0.6c-0.7,0-1.2,0.2-1.4,0.7
		c-0.3,0.5-0.4,1.1-0.4,1.7v10.2c0,0.5,0.1,1,0.4,1.5c0.3,0.4,0.8,0.7,1.4,0.6c0.2,0,0.4,0,0.6-0.1c0.2-0.1,0.4-0.2,0.6-0.3
		c0.2-0.2,0.3-0.4,0.4-0.6c0.1-0.3,0.2-0.6,0.2-1v-1h2.9L118.6,34.7z"/>
	<path class="st1" d="M121.7,19.1h8.5v2.7h-5.7v5.9h4.9v2.7h-4.9v5.9h5.7v2.9h-8.5V19.1z"/>
	<path class="st1" d="M139.1,19.1h4.3c0.7,0,1.4,0.1,2.1,0.3c0.6,0.2,1.2,0.6,1.6,1.1c0.5,0.5,0.8,1.2,1,1.8
		c0.2,0.9,0.3,1.9,0.3,2.9c0,0.8,0,1.5-0.2,2.3c-0.1,0.6-0.3,1.2-0.7,1.8c-0.4,0.6-0.9,1.2-1.6,1.5c-0.8,0.4-1.7,0.6-2.6,0.5h-1.5
		v7.8h-2.9L139.1,19.1z M141.9,28.6h1.4c0.5,0,0.9-0.1,1.4-0.3c0.3-0.2,0.5-0.4,0.7-0.7c0.2-0.3,0.3-0.7,0.3-1.1c0-0.4,0-0.9,0-1.4
		c0-0.5,0-1,0-1.3c0-0.4-0.1-0.7-0.3-1.1c-0.1-0.3-0.4-0.6-0.7-0.7c-0.4-0.2-0.8-0.3-1.3-0.3h-1.5L141.9,28.6z"/>
	<path class="st1" d="M153.5,19.1h2.4l4.5,20h-2.9l-0.9-4.3h-3.9l-0.9,4.3H149L153.5,19.1z M154.7,24.9L154.7,24.9l-1.5,7.2h2.9
		L154.7,24.9z"/>
	<path class="st1" d="M162.6,19.1h4.6c3.4,0,5.1,2,5.1,5.9c0,1-0.2,2-0.6,3c-0.4,0.9-1.1,1.6-1.9,2l3.1,9.1h-3l-2.7-8.5h-1.7v8.6
		h-2.9L162.6,19.1z M165.5,28.1h1.6c0.4,0,0.8-0.1,1.2-0.2c0.3-0.1,0.5-0.3,0.7-0.6c0.2-0.3,0.3-0.6,0.3-1c0.1-0.9,0.1-1.8,0-2.7
		c0-0.3-0.2-0.7-0.4-1c-0.2-0.3-0.4-0.5-0.7-0.6c-0.4-0.1-0.8-0.2-1.3-0.2h-1.5L165.5,28.1z"/>
	<path class="st1" d="M176.8,21.8h-3.3v-2.7h9.5v2.7h-3.3v17.3h-2.9V21.8z"/>
	<path class="st1" d="M185,19.1h2.8l4.3,12.1h0.1V19.1h2.9v20h-2.7l-4.4-12h-0.1v12H185L185,19.1z"/>
	<path class="st1" d="M198.4,19.1h8.5v2.7h-5.7v5.9h4.9v2.7h-4.9v5.9h5.7v2.9h-8.5V19.1z"/>
	<path class="st1" d="M209.6,19.1h4.6c3.4,0,5.1,2,5.1,5.9c0,1-0.2,2-0.5,3c-0.4,0.9-1.1,1.6-1.9,2l3.1,9.1h-3l-2.7-8.5h-1.7v8.5
		h-2.9V19.1z M212.5,28.1h1.6c0.4,0,0.8-0.1,1.2-0.2c0.3-0.1,0.5-0.3,0.7-0.6c0.2-0.3,0.3-0.6,0.3-1c0.1-0.9,0.1-1.8,0-2.7
		c0-0.3-0.2-0.7-0.4-1c-0.2-0.3-0.4-0.5-0.7-0.6c-0.4-0.1-0.8-0.2-1.3-0.2h-1.5L212.5,28.1z"/>
	<path class="st1" d="M228.4,23.9c0-0.7,0.1-1.5,0.4-2.1c0.3-0.6,0.6-1.1,1.1-1.5c0.5-0.4,1-0.7,1.5-0.9c1.1-0.4,2.3-0.4,3.5,0
		c0.6,0.2,1.1,0.5,1.5,0.9c0.5,0.4,0.9,0.9,1.1,1.5c0.3,0.7,0.4,1.4,0.4,2.1v10.6c0,0.7-0.1,1.5-0.4,2.1c-0.3,0.6-0.6,1.1-1.1,1.5
		c-0.5,0.4-1,0.7-1.5,0.9c-1.1,0.4-2.3,0.4-3.5,0c-0.6-0.2-1.1-0.5-1.5-0.9c-0.5-0.4-0.9-0.9-1.1-1.5c-0.3-0.7-0.4-1.4-0.4-2.1
		L228.4,23.9z M231.2,34.4c0,0.6,0.2,1.1,0.6,1.5c0.8,0.7,1.9,0.7,2.7,0c0.4-0.4,0.6-1,0.6-1.5V23.9c0-0.6-0.2-1.1-0.6-1.5
		c-0.8-0.7-1.9-0.7-2.7,0c-0.4,0.4-0.6,1-0.6,1.5V34.4z"/>
	<path class="st1" d="M241.2,19.1h2.8l4.3,12.1h0.1V19.1h2.9v20h-2.7l-4.4-12h-0.1v12h-2.9L241.2,19.1z"/>
	<path class="st1" d="M254.7,19.1h8.5v2.7h-5.7v5.9h4.9v2.7h-4.9v5.9h5.7v2.9h-8.5V19.1z"/>
	<path class="st1" d="M266.4,36.5h-0.5v-0.4h1.4v0.4h-0.5v2.6h-0.4L266.4,36.5z"/>
	<path class="st1" d="M267.6,36.1h0.4l0.6,1.6l0,0l0.6-1.6h0.4v3h-0.4v-1.8l0,0l-0.4,1.3h-0.2l-0.4-1.3l0,0v1.8h-0.4L267.6,36.1z"/>
</g>
</svg>
